<svg width="47" height="47" viewBox="0 0 47 47" fill="none" xmlns="http://www.w3.org/2000/svg">
<path d="M24 46C36.7025 46 47 35.7025 47 23C47 10.2974 36.7025 0 24 0C11.2974 0 1 10.2974 1 23C1 35.7025 11.2974 46 24 46Z" fill="#EBF1FF"/>
<path d="M23.5 47C10.5 47 0 36.5 0 23.5C0 10.5 10.5 0 23.5 0C36.5 0 47 10.5 47 23.5C47 36.5 36.5 47 23.5 47ZM23.5 2C11.6 2 2 11.6 2 23.5C2 35.4 11.6 45 23.5 45C35.4 45 45 35.4 45 23.5C45 11.6 35.4 2 23.5 2Z" fill="#CFD8EE"/>
<path d="M23.9 39.8C33.2336 39.8 40.8 32.2336 40.8 22.9C40.8 13.5664 33.2336 6 23.9 6C14.5664 6 7 13.5664 7 22.9C7 32.2336 14.5664 39.8 23.9 39.8Z" fill="#BED1FF"/>
<path d="M15.18 15.98H19.64L23.4 23.76L27.14 15.98H31.6V30H27.94V21.68L24.74 28.62H22.04L18.84 21.68V30H15.18V15.98Z" fill="white"/>
</svg>
