<svg width="21" height="21" viewBox="0 0 21 21" fill="none" xmlns="http://www.w3.org/2000/svg">
<path d="M14.9005 6.38013C14.7362 6.09484 14.4996 5.85791 14.2145 5.69321C13.9294 5.5285 13.606 5.44184 13.2767 5.44196C12.9475 5.44208 12.6241 5.52898 12.3391 5.69389C12.0542 5.8588 11.8177 6.09591 11.6536 6.38131L10.4336 4.26816C10.2677 3.97994 10.028 3.7411 9.73913 3.5762C9.45031 3.4113 9.12278 3.32629 8.79022 3.3299C8.45766 3.33352 8.13206 3.42563 7.84689 3.59677C7.56172 3.76791 7.32727 4.01191 7.16764 4.30368C6.89053 3.98309 6.513 3.76582 6.09659 3.68728C5.68018 3.60873 5.24944 3.67355 4.87459 3.87116C4.49973 4.06877 4.20286 4.38752 4.03237 4.77546C3.86187 5.1634 3.8278 5.59765 3.93571 6.00743C3.633 6.05178 3.34575 6.16958 3.09906 6.35053C2.85237 6.53148 2.65374 6.77009 2.52052 7.04551C2.3873 7.32092 2.32355 7.62477 2.33483 7.9305C2.34611 8.23624 2.43208 8.53456 2.58523 8.79941L2.86764 9.28857C2.53841 9.2881 2.21488 9.37438 1.92962 9.53875C1.64436 9.70311 1.40745 9.93974 1.24275 10.2248C1.07804 10.5099 0.991371 10.8333 0.991455 11.1625C0.991539 11.4917 1.07838 11.8151 1.24322 12.1001L4.13385 17.1068C4.71291 18.11 5.56593 18.9274 6.59293 19.4631C7.61993 19.9989 8.77836 20.2307 9.93245 20.1316C11.0865 20.0325 12.1884 19.6064 13.109 18.9034C14.0296 18.2004 14.7308 17.2495 15.1302 16.1622C16.1246 15.2182 16.7733 13.9678 16.9725 12.6112C17.1716 11.2547 16.9097 9.87053 16.2287 8.68055L14.9005 6.38013ZM11.9894 18.5254C10.8047 19.2075 9.39781 19.3919 8.07735 19.0381C6.75688 18.6843 5.63067 17.8212 4.94577 16.6381L2.05515 11.6314C1.93082 11.416 1.89714 11.1601 1.96149 10.92C2.02585 10.6798 2.18298 10.475 2.39831 10.3507C2.61365 10.2264 2.86955 10.1927 3.10972 10.257C3.34989 10.3214 3.55466 10.4785 3.67899 10.6939L3.67906 10.694L5.55399 13.9415C5.58475 13.9948 5.62572 14.0416 5.67455 14.0791C5.72339 14.1166 5.77914 14.1441 5.83862 14.1601C5.8981 14.176 5.96013 14.1801 6.02119 14.1721C6.08224 14.164 6.14112 14.1441 6.19445 14.1133C6.24778 14.0825 6.29452 14.0415 6.332 13.9926C6.36948 13.9438 6.39697 13.888 6.41289 13.8285C6.42881 13.769 6.43286 13.707 6.4248 13.6459C6.41673 13.5849 6.39672 13.526 6.36591 13.4727L3.39716 8.33066C3.3356 8.22405 3.29564 8.10635 3.27957 7.98429C3.2635 7.86223 3.27163 7.7382 3.30349 7.61928C3.33536 7.50036 3.39033 7.38889 3.46527 7.29121C3.54022 7.19354 3.63367 7.11159 3.74029 7.05003C3.84691 6.98847 3.9646 6.94852 4.08666 6.93245C4.20872 6.91638 4.33275 6.92451 4.45167 6.95637C4.57059 6.98823 4.68206 7.04321 4.77974 7.11815C4.87741 7.1931 4.95936 7.28655 5.02092 7.39316L7.98967 12.5352C8.05187 12.6428 8.15424 12.7213 8.2743 12.7534C8.39435 12.7856 8.52225 12.7687 8.62988 12.7066C8.73751 12.6445 8.81606 12.5421 8.84826 12.4221C8.88046 12.302 8.86367 12.1741 8.80159 12.0665L6.45784 8.00699V8.00695C6.33352 7.79162 6.29983 7.53573 6.36418 7.29557C6.42853 7.0554 6.58565 6.85064 6.80097 6.72632C7.0163 6.602 7.27219 6.56831 7.51235 6.63265C7.75252 6.697 7.95728 6.85412 8.0816 7.06945L11.3629 12.7527C11.425 12.8603 11.5274 12.9388 11.6475 12.971C11.7675 13.0031 11.8954 12.9862 12.0031 12.9241C12.1107 12.862 12.1892 12.7596 12.2214 12.6396C12.2536 12.5196 12.2369 12.3917 12.1748 12.284L10.9248 10.119L10.9248 10.1189C10.8005 9.90359 10.7668 9.6477 10.8311 9.40754C10.8955 9.16737 11.0526 8.9626 11.2679 8.83828C11.4832 8.71396 11.7391 8.68027 11.9793 8.74462C12.2194 8.80897 12.4242 8.96609 12.5485 9.18142L13.8767 11.4818C14.2152 12.0682 14.435 12.7156 14.5234 13.3869C14.6118 14.0583 14.5671 14.7404 14.3918 15.3945C14.2166 16.0485 13.9142 16.6617 13.502 17.1989C13.0898 17.7361 12.5758 18.1868 11.9894 18.5254H11.9894ZM13.0769 2.9025L13.4005 1.69515C13.4328 1.57517 13.5114 1.47291 13.619 1.41084C13.7266 1.34877 13.8545 1.33196 13.9745 1.36411C14.0945 1.39626 14.1969 1.47474 14.259 1.58231C14.3212 1.68987 14.3382 1.81772 14.3061 1.93776L13.9826 3.14512C13.9503 3.2651 13.8717 3.36735 13.7641 3.42943C13.6564 3.4915 13.5286 3.5083 13.4086 3.47615C13.2886 3.444 13.1862 3.36552 13.124 3.25796C13.0619 3.1504 13.0449 3.02255 13.0769 2.9025ZM15.113 3.67231L15.83 2.64837C15.9013 2.54653 16.0102 2.47718 16.1326 2.45559C16.255 2.434 16.381 2.46193 16.4829 2.53324C16.5847 2.60454 16.654 2.71339 16.6756 2.83582C16.6972 2.95825 16.6693 3.08425 16.598 3.18609L15.881 4.21003C15.8097 4.31187 15.7008 4.38121 15.5784 4.4028C15.456 4.42439 15.33 4.39646 15.2281 4.32516C15.1263 4.25385 15.057 4.14501 15.0354 4.02258C15.0138 3.90014 15.0417 3.77415 15.113 3.67231ZM18.3247 5.14303L17.3007 5.86004C17.2503 5.89534 17.1934 5.92037 17.1333 5.93369C17.0732 5.94702 17.0111 5.94837 16.9505 5.93768C16.8898 5.92699 16.8319 5.90446 16.78 5.87139C16.7281 5.83831 16.6832 5.79533 16.6479 5.74491C16.6126 5.69448 16.5875 5.6376 16.5742 5.5775C16.5609 5.5174 16.5595 5.45526 16.5702 5.39464C16.5809 5.33402 16.6035 5.2761 16.6365 5.22418C16.6696 5.17226 16.7126 5.12737 16.763 5.09206L17.787 4.37505C17.8888 4.30374 18.0148 4.27581 18.1372 4.29741C18.2597 4.319 18.3685 4.38834 18.4398 4.49018C18.5111 4.59202 18.539 4.71801 18.5174 4.84045C18.4959 4.96288 18.4265 5.07172 18.3247 5.14302V5.14303Z" fill="#A3A8AF"/>
</svg>
