<svg width="120" height="46" viewBox="0 0 120 46" fill="none" xmlns="http://www.w3.org/2000/svg">
<path d="M14.1547 11.04L19.0747 0.439998H27.4347L18.0347 17.84V29H10.2747V18.08L0.874687 0.439998H9.27469L14.1547 11.04ZM55.5759 14.68C55.5759 16.8933 55.3093 18.9067 54.7759 20.72C54.2426 22.5067 53.4159 24.0533 52.2959 25.36C51.1759 26.6667 49.7359 27.6667 47.9759 28.36C46.2426 29.0533 44.1493 29.4 41.6959 29.4C39.2959 29.4 37.2159 29.0533 35.4559 28.36C33.7226 27.6667 32.2826 26.6667 31.1359 25.36C30.0159 24.0533 29.1759 22.5067 28.6159 20.72C28.0826 18.9067 27.8159 16.88 27.8159 14.64C27.8159 11.68 28.3093 9.10667 29.2959 6.92C30.2826 4.70666 31.8026 3 33.8559 1.8C35.9093 0.599999 38.5359 -9.53674e-07 41.7359 -9.53674e-07C44.9893 -9.53674e-07 47.6293 0.613332 49.6559 1.84C51.7093 3.04 53.2026 4.74667 54.1359 6.96C55.0959 9.14667 55.5759 11.72 55.5759 14.68ZM35.9359 14.68C35.9359 16.3867 36.1226 17.8667 36.4959 19.12C36.8959 20.3467 37.5226 21.2933 38.3759 21.96C39.2293 22.6267 40.3359 22.96 41.6959 22.96C43.1093 22.96 44.2293 22.6267 45.0559 21.96C45.9093 21.2933 46.5226 20.3467 46.8959 19.12C47.2693 17.8667 47.4559 16.3867 47.4559 14.68C47.4559 12.0933 47.0293 10.0533 46.1759 8.56C45.3226 7.06667 43.8426 6.32 41.7359 6.32C40.3493 6.32 39.2293 6.66667 38.3759 7.36C37.5226 8.02667 36.8959 8.98667 36.4959 10.24C36.1226 11.4667 35.9359 12.9467 35.9359 14.68ZM87.0509 29H76.9309L66.4909 8.88H66.3309C66.3843 9.33333 66.4243 9.86667 66.4509 10.48C66.5043 11.0933 66.5443 11.7333 66.5709 12.4C66.5976 13.0667 66.6243 13.72 66.6509 14.36C66.6776 15 66.6909 15.5867 66.6909 16.12V29H59.8509V0.439998H69.9309L80.3309 20.28H80.4509C80.4243 19.8267 80.3843 19.3067 80.3309 18.72C80.3043 18.1067 80.2776 17.4933 80.2509 16.88C80.2243 16.24 80.1976 15.6133 80.1709 15C80.1709 14.3867 80.1709 13.84 80.1709 13.36V0.439998H87.0509V29ZM119.05 14.68C119.05 16.8933 118.784 18.9067 118.25 20.72C117.717 22.5067 116.89 24.0533 115.77 25.36C114.65 26.6667 113.21 27.6667 111.45 28.36C109.717 29.0533 107.624 29.4 105.17 29.4C102.77 29.4 100.69 29.0533 98.9303 28.36C97.197 27.6667 95.757 26.6667 94.6103 25.36C93.4903 24.0533 92.6503 22.5067 92.0903 20.72C91.557 18.9067 91.2903 16.88 91.2903 14.64C91.2903 11.68 91.7836 9.10667 92.7703 6.92C93.757 4.70666 95.277 3 97.3303 1.8C99.3836 0.599999 102.01 -9.53674e-07 105.21 -9.53674e-07C108.464 -9.53674e-07 111.104 0.613332 113.13 1.84C115.184 3.04 116.677 4.74667 117.61 6.96C118.57 9.14667 119.05 11.72 119.05 14.68ZM99.4103 14.68C99.4103 16.3867 99.597 17.8667 99.9703 19.12C100.37 20.3467 100.997 21.2933 101.85 21.96C102.704 22.6267 103.81 22.96 105.17 22.96C106.584 22.96 107.704 22.6267 108.53 21.96C109.384 21.2933 109.997 20.3467 110.37 19.12C110.744 17.8667 110.93 16.3867 110.93 14.68C110.93 12.0933 110.504 10.0533 109.65 8.56C108.797 7.06667 107.317 6.32 105.21 6.32C103.824 6.32 102.704 6.66667 101.85 7.36C100.997 8.02667 100.37 8.98667 99.9703 10.24C99.597 11.4667 99.4103 12.9467 99.4103 14.68ZM4.94501 37.281L7.36301 32.718H8.62401L5.53001 38.399V42H4.36001V38.451L1.26601 32.718H2.54001L4.94501 37.281ZM15.6648 38.503C15.6648 39.0837 15.5868 39.5993 15.4308 40.05C15.2835 40.492 15.0668 40.869 14.7808 41.181C14.5035 41.493 14.1612 41.7313 13.7538 41.896C13.3552 42.052 12.9088 42.13 12.4148 42.13C11.9555 42.13 11.5308 42.052 11.1408 41.896C10.7508 41.7313 10.4128 41.493 10.1268 41.181C9.84083 40.869 9.6155 40.492 9.45083 40.05C9.29483 39.5993 9.21683 39.0837 9.21683 38.503C9.21683 37.7317 9.34683 37.0817 9.60683 36.553C9.86683 36.0157 10.2395 35.6083 10.7248 35.331C11.2102 35.045 11.7865 34.902 12.4538 34.902C13.0865 34.902 13.6412 35.045 14.1178 35.331C14.6032 35.6083 14.9802 36.0157 15.2488 36.553C15.5262 37.0817 15.6648 37.7317 15.6648 38.503ZM10.3998 38.503C10.3998 39.049 10.4692 39.5257 10.6078 39.933C10.7552 40.3317 10.9805 40.6393 11.2838 40.856C11.5872 41.0727 11.9728 41.181 12.4408 41.181C12.9088 41.181 13.2945 41.0727 13.5978 40.856C13.9012 40.6393 14.1222 40.3317 14.2608 39.933C14.4082 39.5257 14.4818 39.049 14.4818 38.503C14.4818 37.9483 14.4082 37.476 14.2608 37.086C14.1135 36.696 13.8882 36.397 13.5848 36.189C13.2902 35.9723 12.9045 35.864 12.4278 35.864C11.7172 35.864 11.2015 36.098 10.8808 36.566C10.5602 37.034 10.3998 37.6797 10.3998 38.503ZM23.8219 35.032V42H22.8859L22.7169 41.077H22.6649C22.5176 41.3197 22.3269 41.519 22.0929 41.675C21.8589 41.831 21.6033 41.9437 21.3259 42.013C21.0486 42.091 20.7583 42.13 20.4549 42.13C19.9003 42.13 19.4323 42.0433 19.0509 41.87C18.6783 41.688 18.3966 41.4107 18.2059 41.038C18.0153 40.6653 17.9199 40.1843 17.9199 39.595V35.032H19.0769V39.517C19.0769 40.0717 19.2026 40.4877 19.4539 40.765C19.7053 41.0423 20.0953 41.181 20.6239 41.181C21.1439 41.181 21.5513 41.0857 21.8459 40.895C22.1493 40.6957 22.3616 40.4097 22.4829 40.037C22.6129 39.6557 22.6779 39.1963 22.6779 38.659V35.032H23.8219ZM38.706 37.346C38.706 38.0653 38.615 38.7197 38.433 39.309C38.251 39.8897 37.978 40.3923 37.614 40.817C37.2587 41.2417 36.8123 41.5667 36.275 41.792C35.7463 42.0173 35.131 42.13 34.429 42.13C33.701 42.13 33.0683 42.0173 32.531 41.792C31.9937 41.558 31.5473 41.233 31.192 40.817C30.8367 40.3923 30.5723 39.8853 30.399 39.296C30.2257 38.7067 30.139 38.0523 30.139 37.333C30.139 36.3797 30.295 35.5477 30.607 34.837C30.919 34.1263 31.3913 33.5717 32.024 33.173C32.6653 32.7743 33.4713 32.575 34.442 32.575C35.3693 32.575 36.1493 32.7743 36.782 33.173C37.4147 33.563 37.8913 34.1177 38.212 34.837C38.5413 35.5477 38.706 36.384 38.706 37.346ZM31.374 37.346C31.374 38.126 31.4823 38.7977 31.699 39.361C31.9157 39.9243 32.2493 40.3577 32.7 40.661C33.1593 40.9643 33.7357 41.116 34.429 41.116C35.131 41.116 35.703 40.9643 36.145 40.661C36.5957 40.3577 36.9293 39.9243 37.146 39.361C37.3627 38.7977 37.471 38.126 37.471 37.346C37.471 36.176 37.2283 35.2617 36.743 34.603C36.2577 33.9357 35.4907 33.602 34.442 33.602C33.74 33.602 33.1593 33.7537 32.7 34.057C32.2493 34.3517 31.9157 34.7807 31.699 35.344C31.4823 35.8987 31.374 36.566 31.374 37.346ZM44.4813 34.902C45.3133 34.902 45.9416 35.1057 46.3663 35.513C46.7909 35.9117 47.0033 36.5617 47.0033 37.463V42H45.8723V37.541C45.8723 36.9777 45.7466 36.5573 45.4953 36.28C45.2439 36.0027 44.8496 35.864 44.3123 35.864C43.5409 35.864 43.0079 36.0807 42.7133 36.514C42.4186 36.9473 42.2713 37.5713 42.2713 38.386V42H41.1273V35.032H42.0503L42.2193 35.981H42.2843C42.4403 35.7383 42.6309 35.539 42.8563 35.383C43.0903 35.2183 43.3459 35.097 43.6233 35.019C43.9006 34.941 44.1866 34.902 44.4813 34.902ZM50.8274 42H49.6834V32.12H50.8274V42ZM52.463 35.032H53.685L55.193 38.997C55.2796 39.231 55.3576 39.4563 55.427 39.673C55.505 39.8897 55.5743 40.102 55.635 40.31C55.6956 40.5093 55.7433 40.7043 55.778 40.895H55.83C55.882 40.6783 55.9643 40.3967 56.077 40.05C56.1896 39.6947 56.3066 39.3393 56.428 38.984L57.845 35.032H59.08L56.077 42.962C55.9123 43.3953 55.7173 43.7723 55.492 44.093C55.2753 44.4223 55.0066 44.6737 54.686 44.847C54.374 45.029 53.9926 45.12 53.542 45.12C53.334 45.12 53.152 45.107 52.996 45.081C52.84 45.0637 52.7056 45.042 52.593 45.016V44.106C52.6883 44.1233 52.801 44.1407 52.931 44.158C53.0696 44.1753 53.2126 44.184 53.36 44.184C53.6286 44.184 53.8583 44.132 54.049 44.028C54.2483 43.9327 54.4173 43.7897 54.556 43.599C54.6946 43.417 54.8116 43.2003 54.907 42.949L55.271 42.026L52.463 35.032ZM72.1129 42H70.7479L65.7819 34.291H65.7299C65.7385 34.447 65.7472 34.6203 65.7559 34.811C65.7732 35.0017 65.7862 35.2097 65.7949 35.435C65.8035 35.6517 65.8122 35.877 65.8209 36.111C65.8295 36.345 65.8339 36.579 65.8339 36.813V42H64.7549V32.718H66.1069L71.0599 40.401H71.1119C71.1032 40.297 71.0945 40.154 71.0859 39.972C71.0772 39.7813 71.0685 39.5733 71.0599 39.348C71.0512 39.114 71.0425 38.8757 71.0339 38.633C71.0252 38.3903 71.0209 38.165 71.0209 37.957V32.718H72.1129V42ZM77.6868 34.902C78.2848 34.902 78.7961 35.032 79.2208 35.292C79.6541 35.552 79.9835 35.9203 80.2088 36.397C80.4428 36.865 80.5598 37.4153 80.5598 38.048V38.737H75.7888C75.8061 39.5257 76.0055 40.128 76.3868 40.544C76.7768 40.9513 77.3185 41.155 78.0118 41.155C78.4538 41.155 78.8438 41.116 79.1818 41.038C79.5285 40.9513 79.8838 40.83 80.2478 40.674V41.675C79.8925 41.831 79.5415 41.9437 79.1948 42.013C78.8481 42.091 78.4365 42.13 77.9598 42.13C77.3011 42.13 76.7161 41.9957 76.2048 41.727C75.7021 41.4583 75.3078 41.0597 75.0218 40.531C74.7445 39.9937 74.6058 39.3393 74.6058 38.568C74.6058 37.8053 74.7315 37.151 74.9828 36.605C75.2428 36.059 75.6025 35.6387 76.0618 35.344C76.5298 35.0493 77.0715 34.902 77.6868 34.902ZM77.6738 35.838C77.1278 35.838 76.6945 36.0157 76.3738 36.371C76.0618 36.7177 75.8755 37.203 75.8148 37.827H79.3638C79.3638 37.4283 79.3031 37.0817 79.1818 36.787C79.0605 36.4923 78.8741 36.2627 78.6228 36.098C78.3801 35.9247 78.0638 35.838 77.6738 35.838ZM85.5447 34.902C86.1427 34.902 86.654 35.032 87.0787 35.292C87.512 35.552 87.8414 35.9203 88.0667 36.397C88.3007 36.865 88.4177 37.4153 88.4177 38.048V38.737H83.6467C83.664 39.5257 83.8634 40.128 84.2447 40.544C84.6347 40.9513 85.1764 41.155 85.8697 41.155C86.3117 41.155 86.7017 41.116 87.0397 41.038C87.3864 40.9513 87.7417 40.83 88.1057 40.674V41.675C87.7504 41.831 87.3994 41.9437 87.0527 42.013C86.706 42.091 86.2944 42.13 85.8177 42.13C85.159 42.13 84.574 41.9957 84.0627 41.727C83.56 41.4583 83.1657 41.0597 82.8797 40.531C82.6024 39.9937 82.4637 39.3393 82.4637 38.568C82.4637 37.8053 82.5894 37.151 82.8407 36.605C83.1007 36.059 83.4604 35.6387 83.9197 35.344C84.3877 35.0493 84.9294 34.902 85.5447 34.902ZM85.5317 35.838C84.9857 35.838 84.5524 36.0157 84.2317 36.371C83.9197 36.7177 83.7334 37.203 83.6727 37.827H87.2217C87.2217 37.4283 87.161 37.0817 87.0397 36.787C86.9184 36.4923 86.732 36.2627 86.4807 36.098C86.238 35.9247 85.9217 35.838 85.5317 35.838ZM93.1816 42.13C92.3149 42.13 91.6216 41.831 91.1016 41.233C90.5816 40.6263 90.3216 39.725 90.3216 38.529C90.3216 37.333 90.5816 36.4317 91.1016 35.825C91.6303 35.2097 92.3279 34.902 93.1946 34.902C93.5586 34.902 93.8749 34.9497 94.1436 35.045C94.4123 35.1317 94.6463 35.253 94.8456 35.409C95.0449 35.565 95.2139 35.7383 95.3526 35.929H95.4306C95.4219 35.8163 95.4046 35.6517 95.3786 35.435C95.3613 35.2097 95.3526 35.032 95.3526 34.902V32.12H96.4966V42H95.5736L95.4046 41.064H95.3526C95.2139 41.2633 95.0449 41.4453 94.8456 41.61C94.6463 41.766 94.4079 41.8917 94.1306 41.987C93.8619 42.0823 93.5456 42.13 93.1816 42.13ZM93.3636 41.181C94.1003 41.181 94.6159 40.9817 94.9106 40.583C95.2139 40.1757 95.3656 39.5647 95.3656 38.75V38.542C95.3656 37.6753 95.2226 37.0123 94.9366 36.553C94.6506 36.085 94.1219 35.851 93.3506 35.851C92.7353 35.851 92.2716 36.098 91.9596 36.592C91.6563 37.0773 91.5046 37.7317 91.5046 38.555C91.5046 39.387 91.6563 40.0327 91.9596 40.492C92.2716 40.9513 92.7396 41.181 93.3636 41.181ZM111.382 37.346C111.382 38.0653 111.291 38.7197 111.109 39.309C110.927 39.8897 110.654 40.3923 110.29 40.817C109.934 41.2417 109.488 41.5667 108.951 41.792C108.422 42.0173 107.807 42.13 107.105 42.13C106.377 42.13 105.744 42.0173 105.207 41.792C104.669 41.558 104.223 41.233 103.868 40.817C103.512 40.3923 103.248 39.8853 103.075 39.296C102.901 38.7067 102.815 38.0523 102.815 37.333C102.815 36.3797 102.971 35.5477 103.283 34.837C103.595 34.1263 104.067 33.5717 104.7 33.173C105.341 32.7743 106.147 32.575 107.118 32.575C108.045 32.575 108.825 32.7743 109.458 33.173C110.09 33.563 110.567 34.1177 110.888 34.837C111.217 35.5477 111.382 36.384 111.382 37.346ZM104.05 37.346C104.05 38.126 104.158 38.7977 104.375 39.361C104.591 39.9243 104.925 40.3577 105.376 40.661C105.835 40.9643 106.411 41.116 107.105 41.116C107.807 41.116 108.379 40.9643 108.821 40.661C109.271 40.3577 109.605 39.9243 109.822 39.361C110.038 38.7977 110.147 38.126 110.147 37.346C110.147 36.176 109.904 35.2617 109.419 34.603C108.933 33.9357 108.166 33.602 107.118 33.602C106.416 33.602 105.835 33.7537 105.376 34.057C104.925 34.3517 104.591 34.7807 104.375 35.344C104.158 35.8987 104.05 36.566 104.05 37.346ZM117.157 34.902C117.989 34.902 118.617 35.1057 119.042 35.513C119.467 35.9117 119.679 36.5617 119.679 37.463V42H118.548V37.541C118.548 36.9777 118.422 36.5573 118.171 36.28C117.92 36.0027 117.525 35.864 116.988 35.864C116.217 35.864 115.684 36.0807 115.389 36.514C115.094 36.9473 114.947 37.5713 114.947 38.386V42H113.803V35.032H114.726L114.895 35.981H114.96C115.116 35.7383 115.307 35.539 115.532 35.383C115.766 35.2183 116.022 35.097 116.299 35.019C116.576 34.941 116.862 34.902 117.157 34.902Z" fill="black"/>
</svg>
