<svg width="121" height="46" viewBox="0 0 121 46" fill="none" xmlns="http://www.w3.org/2000/svg">
<path d="M14.1547 11.04L19.0747 0.439998H27.4347L18.0347 17.84V29H10.2747V18.08L0.874687 0.439998H9.27469L14.1547 11.04ZM55.5759 14.68C55.5759 16.8933 55.3093 18.9067 54.7759 20.72C54.2426 22.5067 53.4159 24.0533 52.2959 25.36C51.1759 26.6667 49.7359 27.6667 47.9759 28.36C46.2426 29.0533 44.1493 29.4 41.6959 29.4C39.2959 29.4 37.2159 29.0533 35.4559 28.36C33.7226 27.6667 32.2826 26.6667 31.1359 25.36C30.0159 24.0533 29.1759 22.5067 28.6159 20.72C28.0826 18.9067 27.8159 16.88 27.8159 14.64C27.8159 11.68 28.3093 9.10667 29.2959 6.92C30.2826 4.70666 31.8026 3 33.8559 1.8C35.9093 0.599999 38.5359 -9.53674e-07 41.7359 -9.53674e-07C44.9893 -9.53674e-07 47.6293 0.613332 49.6559 1.84C51.7093 3.04 53.2026 4.74667 54.1359 6.96C55.0959 9.14667 55.5759 11.72 55.5759 14.68ZM35.9359 14.68C35.9359 16.3867 36.1226 17.8667 36.4959 19.12C36.8959 20.3467 37.5226 21.2933 38.3759 21.96C39.2293 22.6267 40.3359 22.96 41.6959 22.96C43.1093 22.96 44.2293 22.6267 45.0559 21.96C45.9093 21.2933 46.5226 20.3467 46.8959 19.12C47.2693 17.8667 47.4559 16.3867 47.4559 14.68C47.4559 12.0933 47.0293 10.0533 46.1759 8.56C45.3226 7.06667 43.8426 6.32 41.7359 6.32C40.3493 6.32 39.2293 6.66667 38.3759 7.36C37.5226 8.02667 36.8959 8.98667 36.4959 10.24C36.1226 11.4667 35.9359 12.9467 35.9359 14.68ZM87.0509 29H76.9309L66.4909 8.88H66.3309C66.3843 9.33333 66.4243 9.86667 66.4509 10.48C66.5043 11.0933 66.5443 11.7333 66.5709 12.4C66.5976 13.0667 66.6243 13.72 66.6509 14.36C66.6776 15 66.6909 15.5867 66.6909 16.12V29H59.8509V0.439998H69.9309L80.3309 20.28H80.4509C80.4243 19.8267 80.3843 19.3067 80.3309 18.72C80.3043 18.1067 80.2776 17.4933 80.2509 16.88C80.2243 16.24 80.1976 15.6133 80.1709 15C80.1709 14.3867 80.1709 13.84 80.1709 13.36V0.439998H87.0509V29ZM119.05 14.68C119.05 16.8933 118.784 18.9067 118.25 20.72C117.717 22.5067 116.89 24.0533 115.77 25.36C114.65 26.6667 113.21 27.6667 111.45 28.36C109.717 29.0533 107.624 29.4 105.17 29.4C102.77 29.4 100.69 29.0533 98.9303 28.36C97.197 27.6667 95.757 26.6667 94.6103 25.36C93.4903 24.0533 92.6503 22.5067 92.0903 20.72C91.557 18.9067 91.2903 16.88 91.2903 14.64C91.2903 11.68 91.7836 9.10667 92.7703 6.92C93.757 4.70666 95.277 3 97.3303 1.8C99.3836 0.599999 102.01 -9.53674e-07 105.21 -9.53674e-07C108.464 -9.53674e-07 111.104 0.613332 113.13 1.84C115.184 3.04 116.677 4.74667 117.61 6.96C118.57 9.14667 119.05 11.72 119.05 14.68ZM99.4103 14.68C99.4103 16.3867 99.597 17.8667 99.9703 19.12C100.37 20.3467 100.997 21.2933 101.85 21.96C102.704 22.6267 103.81 22.96 105.17 22.96C106.584 22.96 107.704 22.6267 108.53 21.96C109.384 21.2933 109.997 20.3467 110.37 19.12C110.744 17.8667 110.93 16.3867 110.93 14.68C110.93 12.0933 110.504 10.0533 109.65 8.56C108.797 7.06667 107.317 6.32 105.21 6.32C103.824 6.32 102.704 6.66667 101.85 7.36C100.997 8.02667 100.37 8.98667 99.9703 10.24C99.597 11.4667 99.4103 12.9467 99.4103 14.68ZM4.13607 37.281L6.55407 32.718H7.81507L4.72107 38.399V42H3.55107V38.451L0.457069 32.718H1.73107L4.13607 37.281ZM14.4659 38.503C14.4659 39.0837 14.3879 39.5993 14.2319 40.05C14.0846 40.492 13.8679 40.869 13.5819 41.181C13.3046 41.493 12.9622 41.7313 12.5549 41.896C12.1562 42.052 11.7099 42.13 11.2159 42.13C10.7566 42.13 10.3319 42.052 9.94189 41.896C9.55189 41.7313 9.21389 41.493 8.92789 41.181C8.64189 40.869 8.41656 40.492 8.25189 40.05C8.09589 39.5993 8.01789 39.0837 8.01789 38.503C8.01789 37.7317 8.14789 37.0817 8.40789 36.553C8.66789 36.0157 9.04056 35.6083 9.52589 35.331C10.0112 35.045 10.5876 34.902 11.2549 34.902C11.8876 34.902 12.4422 35.045 12.9189 35.331C13.4042 35.6083 13.7812 36.0157 14.0499 36.553C14.3272 37.0817 14.4659 37.7317 14.4659 38.503ZM9.20089 38.503C9.20089 39.049 9.27022 39.5257 9.40889 39.933C9.55622 40.3317 9.78156 40.6393 10.0849 40.856C10.3882 41.0727 10.7739 41.181 11.2419 41.181C11.7099 41.181 12.0956 41.0727 12.3989 40.856C12.7022 40.6393 12.9232 40.3317 13.0619 39.933C13.2092 39.5257 13.2829 39.049 13.2829 38.503C13.2829 37.9483 13.2092 37.476 13.0619 37.086C12.9146 36.696 12.6892 36.397 12.3859 36.189C12.0912 35.9723 11.7056 35.864 11.2289 35.864C10.5182 35.864 10.0026 36.098 9.68189 36.566C9.36122 37.034 9.20089 37.6797 9.20089 38.503ZM22.233 35.032V42H21.297L21.128 41.077H21.076C20.9287 41.3197 20.738 41.519 20.504 41.675C20.27 41.831 20.0143 41.9437 19.737 42.013C19.4597 42.091 19.1693 42.13 18.866 42.13C18.3113 42.13 17.8433 42.0433 17.462 41.87C17.0893 41.688 16.8077 41.4107 16.617 41.038C16.4263 40.6653 16.331 40.1843 16.331 39.595V35.032H17.488V39.517C17.488 40.0717 17.6137 40.4877 17.865 40.765C18.1163 41.0423 18.5063 41.181 19.035 41.181C19.555 41.181 19.9623 41.0857 20.257 40.895C20.5603 40.6957 20.7727 40.4097 20.894 40.037C21.024 39.6557 21.089 39.1963 21.089 38.659V35.032H22.233ZM36.3371 37.346C36.3371 38.0653 36.2461 38.7197 36.0641 39.309C35.8821 39.8897 35.6091 40.3923 35.2451 40.817C34.8897 41.2417 34.4434 41.5667 33.9061 41.792C33.3774 42.0173 32.7621 42.13 32.0601 42.13C31.3321 42.13 30.6994 42.0173 30.1621 41.792C29.6247 41.558 29.1784 41.233 28.8231 40.817C28.4677 40.3923 28.2034 39.8853 28.0301 39.296C27.8567 38.7067 27.7701 38.0523 27.7701 37.333C27.7701 36.3797 27.9261 35.5477 28.2381 34.837C28.5501 34.1263 29.0224 33.5717 29.6551 33.173C30.2964 32.7743 31.1024 32.575 32.0731 32.575C33.0004 32.575 33.7804 32.7743 34.4131 33.173C35.0457 33.563 35.5224 34.1177 35.8431 34.837C36.1724 35.5477 36.3371 36.384 36.3371 37.346ZM29.0051 37.346C29.0051 38.126 29.1134 38.7977 29.3301 39.361C29.5467 39.9243 29.8804 40.3577 30.3311 40.661C30.7904 40.9643 31.3667 41.116 32.0601 41.116C32.7621 41.116 33.3341 40.9643 33.7761 40.661C34.2267 40.3577 34.5604 39.9243 34.7771 39.361C34.9937 38.7977 35.1021 38.126 35.1021 37.346C35.1021 36.176 34.8594 35.2617 34.3741 34.603C33.8887 33.9357 33.1217 33.602 32.0731 33.602C31.3711 33.602 30.7904 33.7537 30.3311 34.057C29.8804 34.3517 29.5467 34.7807 29.3301 35.344C29.1134 35.8987 29.0051 36.566 29.0051 37.346ZM41.7223 34.902C42.5543 34.902 43.1827 35.1057 43.6073 35.513C44.032 35.9117 44.2443 36.5617 44.2443 37.463V42H43.1133V37.541C43.1133 36.9777 42.9877 36.5573 42.7363 36.28C42.485 36.0027 42.0907 35.864 41.5533 35.864C40.782 35.864 40.249 36.0807 39.9543 36.514C39.6597 36.9473 39.5123 37.5713 39.5123 38.386V42H38.3683V35.032H39.2913L39.4603 35.981H39.5253C39.6813 35.7383 39.872 35.539 40.0973 35.383C40.3313 35.2183 40.587 35.097 40.8643 35.019C41.1417 34.941 41.4277 34.902 41.7223 34.902ZM47.6785 42H46.5345V32.12H47.6785V42ZM48.924 35.032H50.146L51.654 38.997C51.7407 39.231 51.8187 39.4563 51.888 39.673C51.966 39.8897 52.0353 40.102 52.096 40.31C52.1567 40.5093 52.2043 40.7043 52.239 40.895H52.291C52.343 40.6783 52.4253 40.3967 52.538 40.05C52.6507 39.6947 52.7677 39.3393 52.889 38.984L54.306 35.032H55.541L52.538 42.962C52.3733 43.3953 52.1783 43.7723 51.953 44.093C51.7363 44.4223 51.4677 44.6737 51.147 44.847C50.835 45.029 50.4537 45.12 50.003 45.12C49.795 45.12 49.613 45.107 49.457 45.081C49.301 45.0637 49.1667 45.042 49.054 45.016V44.106C49.1493 44.1233 49.262 44.1407 49.392 44.158C49.5307 44.1753 49.6737 44.184 49.821 44.184C50.0897 44.184 50.3193 44.132 50.51 44.028C50.7093 43.9327 50.8783 43.7897 51.017 43.599C51.1557 43.417 51.2727 43.2003 51.368 42.949L51.732 42.026L48.924 35.032ZM67.7939 42H66.4289L61.4629 34.291H61.4109C61.4196 34.447 61.4283 34.6203 61.4369 34.811C61.4543 35.0017 61.4673 35.2097 61.4759 35.435C61.4846 35.6517 61.4933 35.877 61.5019 36.111C61.5106 36.345 61.5149 36.579 61.5149 36.813V42H60.4359V32.718H61.7879L66.7409 40.401H66.7929C66.7843 40.297 66.7756 40.154 66.7669 39.972C66.7583 39.7813 66.7496 39.5733 66.7409 39.348C66.7323 39.114 66.7236 38.8757 66.7149 38.633C66.7063 38.3903 66.7019 38.165 66.7019 37.957V32.718H67.7939V42ZM72.9779 34.902C73.5759 34.902 74.0872 35.032 74.5119 35.292C74.9452 35.552 75.2745 35.9203 75.4999 36.397C75.7339 36.865 75.8509 37.4153 75.8509 38.048V38.737H71.0799C71.0972 39.5257 71.2965 40.128 71.6779 40.544C72.0679 40.9513 72.6095 41.155 73.3029 41.155C73.7449 41.155 74.1349 41.116 74.4729 41.038C74.8195 40.9513 75.1749 40.83 75.5389 40.674V41.675C75.1835 41.831 74.8325 41.9437 74.4859 42.013C74.1392 42.091 73.7275 42.13 73.2509 42.13C72.5922 42.13 72.0072 41.9957 71.4959 41.727C70.9932 41.4583 70.5989 41.0597 70.3129 40.531C70.0355 39.9937 69.8969 39.3393 69.8969 38.568C69.8969 37.8053 70.0225 37.151 70.2739 36.605C70.5339 36.059 70.8935 35.6387 71.3529 35.344C71.8209 35.0493 72.3625 34.902 72.9779 34.902ZM72.9649 35.838C72.4189 35.838 71.9855 36.0157 71.6649 36.371C71.3529 36.7177 71.1665 37.203 71.1059 37.827H74.6549C74.6549 37.4283 74.5942 37.0817 74.4729 36.787C74.3515 36.4923 74.1652 36.2627 73.9139 36.098C73.6712 35.9247 73.3549 35.838 72.9649 35.838ZM80.4458 34.902C81.0438 34.902 81.5551 35.032 81.9798 35.292C82.4131 35.552 82.7424 35.9203 82.9678 36.397C83.2018 36.865 83.3188 37.4153 83.3188 38.048V38.737H78.5478C78.5651 39.5257 78.7644 40.128 79.1458 40.544C79.5358 40.9513 80.0774 41.155 80.7708 41.155C81.2128 41.155 81.6028 41.116 81.9408 41.038C82.2874 40.9513 82.6428 40.83 83.0068 40.674V41.675C82.6514 41.831 82.3004 41.9437 81.9538 42.013C81.6071 42.091 81.1954 42.13 80.7188 42.13C80.0601 42.13 79.4751 41.9957 78.9638 41.727C78.4611 41.4583 78.0668 41.0597 77.7808 40.531C77.5034 39.9937 77.3648 39.3393 77.3648 38.568C77.3648 37.8053 77.4904 37.151 77.7418 36.605C78.0018 36.059 78.3614 35.6387 78.8208 35.344C79.2888 35.0493 79.8304 34.902 80.4458 34.902ZM80.4328 35.838C79.8868 35.838 79.4534 36.0157 79.1328 36.371C78.8208 36.7177 78.6344 37.203 78.5738 37.827H82.1228C82.1228 37.4283 82.0621 37.0817 81.9408 36.787C81.8194 36.4923 81.6331 36.2627 81.3818 36.098C81.1391 35.9247 80.8228 35.838 80.4328 35.838ZM87.6927 42.13C86.826 42.13 86.1327 41.831 85.6127 41.233C85.0927 40.6263 84.8327 39.725 84.8327 38.529C84.8327 37.333 85.0927 36.4317 85.6127 35.825C86.1413 35.2097 86.839 34.902 87.7057 34.902C88.0697 34.902 88.386 34.9497 88.6547 35.045C88.9233 35.1317 89.1573 35.253 89.3567 35.409C89.556 35.565 89.725 35.7383 89.8637 35.929H89.9417C89.933 35.8163 89.9157 35.6517 89.8897 35.435C89.8723 35.2097 89.8637 35.032 89.8637 34.902V32.12H91.0077V42H90.0847L89.9157 41.064H89.8637C89.725 41.2633 89.556 41.4453 89.3567 41.61C89.1573 41.766 88.919 41.8917 88.6417 41.987C88.373 42.0823 88.0567 42.13 87.6927 42.13ZM87.8747 41.181C88.6113 41.181 89.127 40.9817 89.4217 40.583C89.725 40.1757 89.8767 39.5647 89.8767 38.75V38.542C89.8767 37.6753 89.7337 37.0123 89.4477 36.553C89.1617 36.085 88.633 35.851 87.8617 35.851C87.2463 35.851 86.7827 36.098 86.4707 36.592C86.1673 37.0773 86.0157 37.7317 86.0157 38.555C86.0157 39.387 86.1673 40.0327 86.4707 40.492C86.7827 40.9513 87.2507 41.181 87.8747 41.181ZM105.113 37.346C105.113 38.0653 105.022 38.7197 104.84 39.309C104.658 39.8897 104.385 40.3923 104.021 40.817C103.665 41.2417 103.219 41.5667 102.682 41.792C102.153 42.0173 101.538 42.13 100.836 42.13C100.108 42.13 99.475 42.0173 98.9377 41.792C98.4003 41.558 97.954 41.233 97.5987 40.817C97.2433 40.3923 96.979 39.8853 96.8057 39.296C96.6323 38.7067 96.5457 38.0523 96.5457 37.333C96.5457 36.3797 96.7017 35.5477 97.0137 34.837C97.3257 34.1263 97.798 33.5717 98.4307 33.173C99.072 32.7743 99.878 32.575 100.849 32.575C101.776 32.575 102.556 32.7743 103.189 33.173C103.821 33.563 104.298 34.1177 104.619 34.837C104.948 35.5477 105.113 36.384 105.113 37.346ZM97.7807 37.346C97.7807 38.126 97.889 38.7977 98.1057 39.361C98.3223 39.9243 98.656 40.3577 99.1067 40.661C99.566 40.9643 100.142 41.116 100.836 41.116C101.538 41.116 102.11 40.9643 102.552 40.661C103.002 40.3577 103.336 39.9243 103.553 39.361C103.769 38.7977 103.878 38.126 103.878 37.346C103.878 36.176 103.635 35.2617 103.15 34.603C102.664 33.9357 101.897 33.602 100.849 33.602C100.147 33.602 99.566 33.7537 99.1067 34.057C98.656 34.3517 98.3223 34.7807 98.1057 35.344C97.889 35.8987 97.7807 36.566 97.7807 37.346ZM110.498 34.902C111.33 34.902 111.958 35.1057 112.383 35.513C112.808 35.9117 113.02 36.5617 113.02 37.463V42H111.889V37.541C111.889 36.9777 111.763 36.5573 111.512 36.28C111.261 36.0027 110.866 35.864 110.329 35.864C109.558 35.864 109.025 36.0807 108.73 36.514C108.435 36.9473 108.288 37.5713 108.288 38.386V42H107.144V35.032H108.067L108.236 35.981H108.301C108.457 35.7383 108.648 35.539 108.873 35.383C109.107 35.2183 109.363 35.097 109.64 35.019C109.917 34.941 110.203 34.902 110.498 34.902ZM118.001 34.902C118.599 34.902 119.11 35.032 119.535 35.292C119.968 35.552 120.298 35.9203 120.523 36.397C120.757 36.865 120.874 37.4153 120.874 38.048V38.737H116.103C116.12 39.5257 116.32 40.128 116.701 40.544C117.091 40.9513 117.633 41.155 118.326 41.155C118.768 41.155 119.158 41.116 119.496 41.038C119.843 40.9513 120.198 40.83 120.562 40.674V41.675C120.207 41.831 119.856 41.9437 119.509 42.013C119.162 42.091 118.751 42.13 118.274 42.13C117.615 42.13 117.03 41.9957 116.519 41.727C116.016 41.4583 115.622 41.0597 115.336 40.531C115.059 39.9937 114.92 39.3393 114.92 38.568C114.92 37.8053 115.046 37.151 115.297 36.605C115.557 36.059 115.917 35.6387 116.376 35.344C116.844 35.0493 117.386 34.902 118.001 34.902ZM117.988 35.838C117.442 35.838 117.009 36.0157 116.688 36.371C116.376 36.7177 116.19 37.203 116.129 37.827H119.678C119.678 37.4283 119.617 37.0817 119.496 36.787C119.375 36.4923 119.188 36.2627 118.937 36.098C118.694 35.9247 118.378 35.838 117.988 35.838Z" fill="black"/>
</svg>
