<svg width="124" height="125" viewBox="0 0 124 125" fill="none" xmlns="http://www.w3.org/2000/svg">
<path d="M57.9523 2.17908C27.0508 2.17908 2 27.5243 2 58.7897H57.9523V2.17908Z" stroke="#2357A2" stroke-width="4" stroke-miterlimit="10" stroke-linecap="round" stroke-linejoin="round"/>
<path d="M2 65.5688C2 96.8338 27.0508 122.179 57.9523 122.179C73.4031 122.179 87.3912 115.843 97.5165 105.598L57.9523 65.5688H2Z" stroke="#2357A2" stroke-width="4" stroke-linejoin="round"/>
<path d="M64.6702 3.60651V61.6107L105.208 102.626C115.583 92.129 122 77.6279 122 61.6107C122 29.5757 96.3324 3.60651 64.6702 3.60651Z" stroke="#2357A2" stroke-width="4" stroke-miterlimit="10" stroke-linecap="round" stroke-linejoin="round"/>
<path d="M64.667 61.6098H64.6718V61.6146" stroke="#2357A2" stroke-width="4" stroke-miterlimit="10" stroke-linecap="round" stroke-linejoin="round"/>
<path d="M64.667 61.6098V61.6146H64.6718" stroke="#2357A2" stroke-width="4" stroke-miterlimit="10" stroke-linecap="round" stroke-linejoin="round"/>
<path d="M82.7148 6.53825L64.6719 24.7935" stroke="#2357A2" stroke-width="4" stroke-miterlimit="10" stroke-linecap="round" stroke-linejoin="round"/>
<path d="M98.2419 14.5884L64.6716 48.5536" stroke="#2357A2" stroke-width="4" stroke-miterlimit="10" stroke-linecap="round" stroke-linejoin="round"/>
<path d="M110.156 26.2992L69.9639 66.9641" stroke="#2357A2" stroke-width="4" stroke-miterlimit="10" stroke-linecap="round" stroke-linejoin="round"/>
<path d="M118.503 41.6137L81.7056 78.8441" stroke="#2357A2" stroke-width="4" stroke-miterlimit="10" stroke-linecap="round" stroke-linejoin="round"/>
<path d="M122 61.8356L93.4429 90.724" stroke="#2357A2" stroke-width="4" stroke-miterlimit="10" stroke-linecap="round" stroke-linejoin="round"/>
<path d="M17.4963 69.8929L6.80371 80.7084" stroke="#2357A2" stroke-width="4" stroke-linecap="round" stroke-linejoin="round"/>
<path d="M41.5953 70.386L15.3943 96.8917" stroke="#2357A2" stroke-width="4" stroke-linecap="round" stroke-linejoin="round"/>
<path d="M59.5694 77.0755L27.854 109.16" stroke="#2357A2" stroke-width="4" stroke-linecap="round" stroke-linejoin="round"/>
<path d="M71.7634 89.6091L44.3967 117.298" stroke="#2357A2" stroke-width="4" stroke-linecap="round" stroke-linejoin="round"/>
<path d="M84.1312 101.966L66.9863 119.313" stroke="#2357A2" stroke-width="4" stroke-linecap="round" stroke-linejoin="round"/>
</svg>
