<svg width="114" height="114" viewBox="0 0 114 114" fill="none" xmlns="http://www.w3.org/2000/svg">
<path d="M112 52.966L106.18 58.9117" stroke="#2357A2" stroke-width="3" stroke-miterlimit="10" stroke-linecap="round" stroke-linejoin="round"/>
<path d="M89.0534 48.0446C91.1095 52.1503 92.2667 56.7843 92.2667 61.6886V70.6837C92.2667 87.5338 78.6068 101.194 61.7562 101.194H41.3086C24.458 101.194 10.7981 87.5338 10.7981 70.6837V61.6886C10.7981 44.8382 24.458 31.1784 41.3086 31.1784H59.5731" stroke="#2357A2" stroke-width="3" stroke-miterlimit="10" stroke-linecap="round" stroke-linejoin="round"/>
<path d="M11.4933 77.1803L2 79.7805V56.4975L10.9222 58.9401C10.8411 59.8479 10.7984 60.7644 10.7984 61.6894V70.6838C10.7984 72.9134 11.0371 75.0871 11.4933 77.1803Z" stroke="#2357A2" stroke-width="3" stroke-miterlimit="10" stroke-linecap="round" stroke-linejoin="round"/>
<path d="M36.737 31.5127C31.8137 32.2456 27.2742 34.1539 23.4132 36.9524L17.2039 25.2691C17.2039 25.2691 30.904 19.5516 36.737 31.5127Z" stroke="#2357A2" stroke-width="3" stroke-miterlimit="10" stroke-linecap="round" stroke-linejoin="round"/>
<path d="M38.975 106.608V106.482C38.975 109.531 36.506 112 33.4566 112C30.4123 112 27.9382 109.531 27.9382 106.482V103.997" stroke="#2357A2" stroke-width="3" stroke-miterlimit="10" stroke-linecap="round" stroke-linejoin="round"/>
<path d="M75.1244 103.997V106.482C75.1244 109.531 72.6554 112 69.606 112C66.5615 112 64.0876 109.531 64.0876 106.482V106.608" stroke="#2357A2" stroke-width="3" stroke-miterlimit="10" stroke-linecap="round" stroke-linejoin="round"/>
<path d="M105.772 50.908C107.98 53.0693 108.018 56.6116 105.857 58.82C103.695 61.0281 100.153 61.0661 97.9446 58.9047C95.7363 56.7434 95.6983 53.2011 97.8599 50.9927C100.021 48.7846 103.563 48.7466 105.772 50.908Z" stroke="#2357A2" stroke-width="3" stroke-miterlimit="10" stroke-linecap="round" stroke-linejoin="round"/>
<path d="M106.658 58.3421C106.658 58.3421 99.8368 67.9079 92.5991 65.9122" stroke="#2357A2" stroke-width="3" stroke-miterlimit="10" stroke-linecap="round" stroke-linejoin="round"/>
<path d="M25.575 50.5344C25.575 48.1198 27.5322 46.1625 29.9469 46.1625C32.3616 46.1625 34.3188 48.1198 34.3188 50.5344" stroke="#2357A2" stroke-width="3" stroke-miterlimit="10" stroke-linecap="round" stroke-linejoin="round"/>
<path d="M78.3594 29.0298C78.3594 32.4012 81.0924 35.1342 84.464 35.1342C87.8354 35.1342 90.5684 32.4012 90.5684 29.0298C90.5684 25.6585 87.8354 22.9255 84.464 22.9255V22.9401C81.0924 22.9401 78.3594 20.2069 78.3594 16.8356C78.3594 13.4642 81.0924 10.731 84.464 10.731C87.8354 10.731 90.5684 13.4642 90.5684 16.8356" stroke="#2357A2" stroke-width="3" stroke-miterlimit="10" stroke-linecap="round" stroke-linejoin="round"/>
<path d="M84.4639 8.43516V37.1047" stroke="#2357A2" stroke-width="3" stroke-miterlimit="10" stroke-linecap="round" stroke-linejoin="round"/>
<path d="M64.0876 22.3756C64.0876 33.6287 73.2103 42.7512 84.4636 42.7512C95.7169 42.7512 104.839 33.6287 104.839 22.3756C104.839 11.1224 95.7169 1.99991 84.4636 1.99991C73.2103 1.99991 64.0876 11.1224 64.0876 22.3756Z" stroke="#2357A2" stroke-width="3" stroke-miterlimit="10" stroke-linecap="round" stroke-linejoin="round"/>
<path d="M54.3159 42.7512C54.3159 42.7512 71.7223 40.5122 81.3136 55.9387" stroke="#2357A2" stroke-width="3" stroke-miterlimit="10" stroke-linecap="round" stroke-linejoin="round"/>
</svg>
