<svg width="124" height="124" viewBox="0 0 124 124" fill="none" xmlns="http://www.w3.org/2000/svg">
<path d="M122 57.5993L115.651 64.0856" stroke="#2357A2" stroke-width="3" stroke-miterlimit="10" stroke-linecap="round" stroke-linejoin="round"/>
<path d="M96.9673 52.2305C99.2104 56.7094 100.473 61.7646 100.473 67.1148V76.9277C100.473 95.3096 85.571 110.211 67.1885 110.211H44.8821C26.4997 110.211 11.5979 95.3096 11.5979 76.9277V67.1148C11.5979 48.7326 26.4997 33.831 44.8821 33.831H64.807" stroke="#2357A2" stroke-width="3" stroke-miterlimit="10" stroke-linecap="round" stroke-linejoin="round"/>
<path d="M12.3563 84.0148L2 86.8514V61.4518L11.7333 64.1165C11.6448 65.1068 11.5983 66.1066 11.5983 67.1157V76.9278C11.5983 79.36 11.8587 81.7314 12.3563 84.0148Z" stroke="#2357A2" stroke-width="3" stroke-miterlimit="10" stroke-linecap="round" stroke-linejoin="round"/>
<path d="M39.8949 34.1958C34.5239 34.9953 29.5717 37.077 25.3598 40.1299L18.5859 27.3845C18.5859 27.3845 33.5315 21.1472 39.8949 34.1958Z" stroke="#2357A2" stroke-width="3" stroke-miterlimit="10" stroke-linecap="round" stroke-linejoin="round"/>
<path d="M42.3363 116.118V115.98C42.3363 119.306 39.6428 122 36.3162 122C32.9952 122 30.2961 119.306 30.2961 115.98V113.269" stroke="#2357A2" stroke-width="3" stroke-miterlimit="10" stroke-linecap="round" stroke-linejoin="round"/>
<path d="M81.772 113.269V115.98C81.772 119.307 79.0786 122 75.752 122C72.4307 122 69.7319 119.307 69.7319 115.98V116.118" stroke="#2357A2" stroke-width="3" stroke-miterlimit="10" stroke-linecap="round" stroke-linejoin="round"/>
<path d="M115.205 55.3541C117.615 57.7119 117.656 61.5763 115.298 63.9854C112.94 66.3942 109.076 66.4357 106.667 64.0778C104.258 61.72 104.216 57.8557 106.574 55.4465C108.932 53.0377 112.796 52.9963 115.205 55.3541Z" stroke="#2357A2" stroke-width="3" stroke-miterlimit="10" stroke-linecap="round" stroke-linejoin="round"/>
<path d="M116.173 63.4641C116.173 63.4641 108.731 73.8995 100.835 71.7223" stroke="#2357A2" stroke-width="3" stroke-miterlimit="10" stroke-linecap="round" stroke-linejoin="round"/>
<path d="M27.718 54.9466C27.718 52.3124 29.8532 50.1773 32.4874 50.1773C35.1216 50.1773 37.2568 52.3124 37.2568 54.9466" stroke="#2357A2" stroke-width="3" stroke-miterlimit="10" stroke-linecap="round" stroke-linejoin="round"/>
<path d="M85.301 31.4872C85.301 35.165 88.2825 38.1464 91.9606 38.1464C95.6385 38.1464 98.62 35.165 98.62 31.4872C98.62 27.8093 95.6385 24.8279 91.9606 24.8279V24.8439C88.2825 24.8439 85.301 21.8622 85.301 18.1843C85.301 14.5065 88.2825 11.5248 91.9606 11.5248C95.6385 11.5248 98.62 14.5065 98.62 18.1843" stroke="#2357A2" stroke-width="3" stroke-miterlimit="10" stroke-linecap="round" stroke-linejoin="round"/>
<path d="M91.9604 9.02025V40.2961" stroke="#2357A2" stroke-width="3" stroke-miterlimit="10" stroke-linecap="round" stroke-linejoin="round"/>
<path d="M69.7319 24.228C69.7319 36.5042 79.6839 46.456 91.9602 46.456C104.237 46.456 114.188 36.5042 114.188 24.228C114.188 11.9518 104.237 2.00002 91.9602 2.00002C79.6839 2.00002 69.7319 11.9518 69.7319 24.228Z" stroke="#2357A2" stroke-width="3" stroke-miterlimit="10" stroke-linecap="round" stroke-linejoin="round"/>
<path d="M59.0718 46.4559C59.0718 46.4559 78.0606 44.0133 88.5237 60.8422" stroke="#2357A2" stroke-width="3" stroke-miterlimit="10" stroke-linecap="round" stroke-linejoin="round"/>
</svg>
