<svg width="104" height="104" viewBox="0 0 104 104" fill="none" xmlns="http://www.w3.org/2000/svg">
<path d="M48.6269 2.00004C22.8757 2.00004 2 23.1211 2 49.1755H48.6269V2.00004Z" stroke="#2357A2" stroke-width="3" stroke-miterlimit="10" stroke-linecap="round" stroke-linejoin="round"/>
<path d="M2 54.8247C2 80.879 22.8757 102 48.6269 102C61.5026 102 73.1593 96.72 81.5971 88.1828L48.6269 54.8247H2Z" stroke="#2357A2" stroke-width="3" stroke-linejoin="round"/>
<path d="M54.2253 3.18954V51.5264L88.0072 85.7054C96.6527 76.9583 102 64.8741 102 51.5264C102 24.8305 80.6105 3.18954 54.2253 3.18954Z" stroke="#2357A2" stroke-width="3" stroke-miterlimit="10" stroke-linecap="round" stroke-linejoin="round"/>
<path d="M54.2227 51.5247H54.2274V51.5295" stroke="#2357A2" stroke-width="3" stroke-miterlimit="10" stroke-linecap="round" stroke-linejoin="round"/>
<path d="M54.2227 51.5247V51.5295H54.2274" stroke="#2357A2" stroke-width="3" stroke-miterlimit="10" stroke-linecap="round" stroke-linejoin="round"/>
<path d="M69.2623 5.63266L54.2266 20.8453" stroke="#2357A2" stroke-width="3" stroke-miterlimit="10" stroke-linecap="round" stroke-linejoin="round"/>
<path d="M82.2015 12.3412L54.2263 40.6455" stroke="#2357A2" stroke-width="3" stroke-miterlimit="10" stroke-linecap="round" stroke-linejoin="round"/>
<path d="M92.1301 22.1L58.6367 55.9874" stroke="#2357A2" stroke-width="3" stroke-miterlimit="10" stroke-linecap="round" stroke-linejoin="round"/>
<path d="M99.0859 34.8622L68.4214 65.8875" stroke="#2357A2" stroke-width="3" stroke-miterlimit="10" stroke-linecap="round" stroke-linejoin="round"/>
<path d="M102 51.7137L78.2024 75.7874" stroke="#2357A2" stroke-width="3" stroke-miterlimit="10" stroke-linecap="round" stroke-linejoin="round"/>
<path d="M14.9134 58.4283L6.00293 67.4412" stroke="#2357A2" stroke-width="3" stroke-linecap="round" stroke-linejoin="round"/>
<path d="M34.996 58.8391L13.1619 80.9272" stroke="#2357A2" stroke-width="3" stroke-linecap="round" stroke-linejoin="round"/>
<path d="M49.9744 64.4138L23.5449 91.1509" stroke="#2357A2" stroke-width="3" stroke-linecap="round" stroke-linejoin="round"/>
<path d="M60.1363 74.8582L37.3308 97.932" stroke="#2357A2" stroke-width="3" stroke-linecap="round" stroke-linejoin="round"/>
<path d="M70.4427 85.156L56.1553 99.6117" stroke="#2357A2" stroke-width="3" stroke-linecap="round" stroke-linejoin="round"/>
</svg>
