<svg width="124" height="89" viewBox="0 0 124 89" fill="none" xmlns="http://www.w3.org/2000/svg">
<path d="M119.172 87H4.82826C3.26634 87 2 85.6582 2 84.0032V4.99678C2 3.3418 3.26634 2 4.82826 2H119.172C120.734 2 122 3.3418 122 4.99678V84.0032C122 85.6582 120.734 87 119.172 87Z" stroke="#2357A2" stroke-width="3" stroke-miterlimit="10" stroke-linecap="round" stroke-linejoin="round"/>
<path d="M122 34.7261H2.00024V17.0283H122V34.7261Z" stroke="#2357A2" stroke-width="3" stroke-miterlimit="10" stroke-linecap="round" stroke-linejoin="round"/>
<path d="M45.7366 55.0459H88.8072V45.3778H45.7366V55.0459Z" stroke="#2357A2" stroke-width="3" stroke-miterlimit="10" stroke-linecap="round" stroke-linejoin="round"/>
<path d="M10.011 76.3485H53.0816V66.6804H10.011V76.3485Z" stroke="#2357A2" stroke-width="3" stroke-miterlimit="10" stroke-linecap="round" stroke-linejoin="round"/>
<path d="M10.2437 55.0459H37.9266V45.3778H10.2437V55.0459Z" stroke="#2357A2" stroke-width="3" stroke-miterlimit="10" stroke-linecap="round" stroke-linejoin="round"/>
<path d="M8.13842 17.03L2.00024 30.205" stroke="#2357A2" stroke-width="3" stroke-miterlimit="10" stroke-linecap="round" stroke-linejoin="round"/>
<path d="M10.4116 34.7261L18.6546 17.0283" stroke="#2357A2" stroke-width="3" stroke-miterlimit="10" stroke-linecap="round" stroke-linejoin="round"/>
<path d="M20.9292 34.7261L29.1722 17.0283" stroke="#2357A2" stroke-width="3" stroke-miterlimit="10" stroke-linecap="round" stroke-linejoin="round"/>
<path d="M31.4468 34.7261L39.6898 17.0283" stroke="#2357A2" stroke-width="3" stroke-miterlimit="10" stroke-linecap="round" stroke-linejoin="round"/>
<path d="M41.9644 34.7261L50.2074 17.0283" stroke="#2357A2" stroke-width="3" stroke-miterlimit="10" stroke-linecap="round" stroke-linejoin="round"/>
<path d="M52.4819 34.7261L60.7249 17.0283" stroke="#2357A2" stroke-width="3" stroke-miterlimit="10" stroke-linecap="round" stroke-linejoin="round"/>
<path d="M62.9995 34.7261L71.2425 17.0283" stroke="#2357A2" stroke-width="3" stroke-miterlimit="10" stroke-linecap="round" stroke-linejoin="round"/>
<path d="M73.5176 34.7261L81.7606 17.0283" stroke="#2357A2" stroke-width="3" stroke-miterlimit="10" stroke-linecap="round" stroke-linejoin="round"/>
<path d="M84.0347 34.7261L92.2777 17.0283" stroke="#2357A2" stroke-width="3" stroke-miterlimit="10" stroke-linecap="round" stroke-linejoin="round"/>
<path d="M94.5527 34.7261L102.796 17.0283" stroke="#2357A2" stroke-width="3" stroke-miterlimit="10" stroke-linecap="round" stroke-linejoin="round"/>
<path d="M105.07 34.7261L113.313 17.0283" stroke="#2357A2" stroke-width="3" stroke-miterlimit="10" stroke-linecap="round" stroke-linejoin="round"/>
<path d="M121.998 20.9629L115.587 34.7278" stroke="#2357A2" stroke-width="3" stroke-miterlimit="10" stroke-linecap="round" stroke-linejoin="round"/>
</svg>
