<svg width="20" height="20" viewBox="0 0 20 20" fill="none" xmlns="http://www.w3.org/2000/svg">
<circle cx="10" cy="10" r="10" fill="#FF8A3B"/>
<path d="M7.07898 13.2066L8.0634 12.2166C8.1125 12.1628 8.17996 12.1297 8.25231 12.1238C8.32465 12.1179 8.39655 12.1396 8.45365 12.1847C8.45365 12.1847 9.4222 12.9082 10.1718 12.9082C10.8445 12.9082 11.5323 12.3427 11.5323 11.651C11.5323 10.9594 10.8286 10.3786 9.6729 10.3786H9.1389C9.06117 10.3759 8.98737 10.3436 8.93244 10.2882C8.87752 10.2328 8.84557 10.1585 8.84308 10.0803V8.77599C8.84308 8.60287 8.98347 8.47765 9.1389 8.47765H9.6729C10.7668 8.47765 11.3442 7.944 11.3442 7.26832C11.3442 6.59179 10.7668 6.09008 10.0941 6.09008C9.40632 6.09008 8.96926 6.45145 8.73528 6.71785C8.62497 6.84391 8.43861 6.84391 8.3141 6.73466L7.3606 5.79173C7.23441 5.6808 7.25029 5.49339 7.3606 5.3833C7.3606 5.3833 8.64168 4 10.3439 4C12.1565 4 13.7192 5.11605 13.7192 6.87585C13.7192 8.08519 12.8125 8.98105 12.1097 9.31049V9.35839C12.8443 9.6727 14 10.6467 14 11.9981C14 13.7108 12.5158 15 10.359 15C8.39181 15 7.39068 14.0251 7.0631 13.6016C6.96867 13.489 6.98538 13.3158 7.07898 13.2066Z" fill="#7C4119"/>
</svg>
