<svg width="20" height="20" viewBox="0 0 20 20" fill="none" xmlns="http://www.w3.org/2000/svg">
<circle cx="10" cy="10" r="10" fill="#CCD6DD"/>
<path d="M12.7056 12.9596H9.76783C10.4959 11.9074 11.7678 10.2022 12.2637 9.29238C12.636 8.5429 12.8682 8.06542 12.8682 7.22045C12.8682 5.45035 11.5663 4 9.34909 4C7.50415 4 6.24793 5.56205 6.24793 5.56205C6.1393 5.68995 6.15506 5.88094 6.26368 5.97729L7.20978 6.96551C7.23768 6.99583 7.2713 7.01997 7.30858 7.03648C7.34586 7.05298 7.38603 7.0615 7.42662 7.0615C7.46721 7.0615 7.50737 7.05298 7.54465 7.03648C7.58194 7.01997 7.61555 6.99583 7.64345 6.96551C7.93781 6.63042 8.51161 6.16828 9.14677 6.16828C10.0149 6.16828 10.5116 6.70971 10.5116 7.31594C10.5116 7.76188 10.3101 8.20867 10.1086 8.52756C9.1932 9.96171 6.89884 13.1668 6 14.3784V14.6973C6 14.8576 6.12355 15 6.29436 15H12.7056C12.7827 14.9968 12.8558 14.9639 12.9104 14.9078C12.9649 14.8518 12.9969 14.7766 13 14.6973V13.2632C12.9977 13.1835 12.966 13.1078 12.9113 13.0514C12.8566 12.995 12.7831 12.9622 12.7056 12.9596Z" fill="#627077"/>
</svg>
