<svg width="249" height="29" viewBox="0 0 249 29" fill="none" xmlns="http://www.w3.org/2000/svg">
<path d="M0.640625 2.54545H9.24148L15.1577 16.9631H15.456L21.3722 2.54545H29.973V28H23.2116V13.2841H23.0128L17.3452 27.8011H13.2685L7.60085 13.1847H7.40199V28H0.640625V2.54545ZM33.0975 28V8.90909H39.9583V28H33.0975ZM36.5279 6.92045C35.5998 6.92045 34.8044 6.61387 34.1415 6.00071C33.4786 5.38755 33.1472 4.65009 33.1472 3.78835C33.1472 2.92661 33.4786 2.18916 34.1415 1.57599C34.8044 0.962831 35.5998 0.65625 36.5279 0.65625C37.4642 0.65625 38.2596 0.962831 38.9142 1.57599C39.5771 2.18916 39.9086 2.92661 39.9086 3.78835C39.9086 4.65009 39.5771 5.38755 38.9142 6.00071C38.2596 6.61387 37.4642 6.92045 36.5279 6.92045ZM52.4014 28.348C50.3299 28.348 48.5567 27.9379 47.0818 27.1175C45.6069 26.2889 44.4758 25.1372 43.6887 23.6623C42.9015 22.1791 42.5079 20.4598 42.5079 18.5043C42.5079 16.5488 42.9015 14.8336 43.6887 13.3587C44.4758 11.8755 45.6069 10.7237 47.0818 9.90341C48.5567 9.07481 50.3299 8.66051 52.4014 8.66051C54.274 8.66051 55.8939 9.00024 57.2611 9.67969C58.6366 10.3509 59.7013 11.3037 60.4553 12.5384C61.2094 13.7647 61.5905 15.2064 61.5988 16.8636H55.2352C55.144 15.861 54.854 15.0987 54.3651 14.5767C53.8846 14.0464 53.2631 13.7812 52.5008 13.7812C51.9042 13.7812 51.3822 13.9553 50.9347 14.3033C50.4873 14.643 50.1393 15.1609 49.8907 15.8569C49.6421 16.5446 49.5178 17.4105 49.5178 18.4545C49.5178 19.4986 49.6421 20.3686 49.8907 21.0646C50.1393 21.7524 50.4873 22.2702 50.9347 22.6183C51.3822 22.958 51.9042 23.1278 52.5008 23.1278C53.0062 23.1278 53.4537 23.0118 53.8431 22.7798C54.2326 22.5395 54.5474 22.1915 54.7877 21.7358C55.0363 21.2718 55.1855 20.7083 55.2352 20.0455H61.5988C61.574 21.7275 61.1887 23.1941 60.4429 24.4453C59.6972 25.6882 58.6407 26.6494 57.2735 27.3288C55.9146 28.0083 54.2906 28.348 52.4014 28.348ZM70.3443 23.4759L70.394 15.3224H71.2889L75.9125 8.90909H83.6184L75.8627 18.902H73.9238L70.3443 23.4759ZM64.1795 28V2.54545H71.0403V28H64.1795ZM75.9622 28L71.5872 20.4432L76.0616 15.571L83.8173 28H75.9622ZM92.0159 2.54545V28H85.1551V2.54545H92.0159ZM104.409 28.348C102.371 28.348 100.614 27.9586 99.1394 27.1797C97.6728 26.3925 96.5417 25.2656 95.7463 23.799C94.9591 22.3241 94.5655 20.5592 94.5655 18.5043C94.5655 16.5322 94.9632 14.8087 95.7587 13.3338C96.5542 11.8589 97.6769 10.7113 99.127 9.89098C100.577 9.07067 102.288 8.66051 104.26 8.66051C105.702 8.66051 107.007 8.88423 108.175 9.33168C109.344 9.77912 110.342 10.4296 111.171 11.283C111.999 12.1282 112.637 13.1557 113.085 14.3654C113.532 15.5752 113.756 16.9382 113.756 18.4545V20.0455H96.7033V16.267H107.442C107.434 15.7202 107.293 15.2396 107.019 14.8253C106.754 14.4027 106.394 14.0754 105.938 13.8434C105.491 13.6031 104.981 13.483 104.409 13.483C103.854 13.483 103.345 13.6031 102.881 13.8434C102.416 14.0754 102.044 14.3986 101.762 14.8129C101.488 15.2272 101.343 15.7119 101.327 16.267V20.3438C101.327 20.9569 101.455 21.5038 101.712 21.9844C101.969 22.465 102.338 22.842 102.818 23.1154C103.299 23.3888 103.879 23.5256 104.558 23.5256C105.031 23.5256 105.462 23.4593 105.851 23.3267C106.249 23.1941 106.588 23.0036 106.87 22.755C107.152 22.4981 107.359 22.1915 107.492 21.8352H113.756C113.54 23.161 113.031 24.3127 112.227 25.2905C111.423 26.2599 110.359 27.014 109.033 27.5526C107.715 28.0829 106.174 28.348 104.409 28.348ZM122.929 2.54545H131.53L137.446 16.9631H137.744L143.66 2.54545H152.261V28H145.5V13.2841H145.301L139.633 27.8011H135.557L129.889 13.1847H129.69V28H122.929V2.54545ZM167.765 19.6477V8.90909H174.626V28H168.113V24.3707H167.914C167.5 25.5888 166.775 26.5417 165.739 27.2294C164.703 27.9089 163.473 28.2486 162.047 28.2486C160.713 28.2486 159.545 27.942 158.543 27.3288C157.548 26.7157 156.773 25.8705 156.218 24.7933C155.671 23.7161 155.394 22.4815 155.386 21.0895V8.90909H162.246V19.6477C162.255 20.5923 162.495 21.3339 162.967 21.8725C163.448 22.4111 164.119 22.6804 164.981 22.6804C165.552 22.6804 166.045 22.5603 166.46 22.32C166.882 22.0714 167.206 21.7234 167.429 21.2759C167.661 20.8202 167.773 20.2775 167.765 19.6477ZM187.062 28.348C184.991 28.348 183.218 27.9379 181.743 27.1175C180.268 26.2889 179.137 25.1372 178.35 23.6623C177.563 22.1791 177.169 20.4598 177.169 18.5043C177.169 16.5488 177.563 14.8336 178.35 13.3587C179.137 11.8755 180.268 10.7237 181.743 9.90341C183.218 9.07481 184.991 8.66051 187.062 8.66051C188.935 8.66051 190.555 9.00024 191.922 9.67969C193.298 10.3509 194.362 11.3037 195.116 12.5384C195.871 13.7647 196.252 15.2064 196.26 16.8636H189.896C189.805 15.861 189.515 15.0987 189.026 14.5767C188.546 14.0464 187.924 13.7812 187.162 13.7812C186.565 13.7812 186.043 13.9553 185.596 14.3033C185.148 14.643 184.8 15.1609 184.552 15.8569C184.303 16.5446 184.179 17.4105 184.179 18.4545C184.179 19.4986 184.303 20.3686 184.552 21.0646C184.8 21.7524 185.148 22.2702 185.596 22.6183C186.043 22.958 186.565 23.1278 187.162 23.1278C187.667 23.1278 188.115 23.0118 188.504 22.7798C188.894 22.5395 189.209 22.1915 189.449 21.7358C189.697 21.2718 189.847 20.7083 189.896 20.0455H196.26C196.235 21.7275 195.85 23.1941 195.104 24.4453C194.358 25.6882 193.302 26.6494 191.935 27.3288C190.576 28.0083 188.952 28.348 187.062 28.348ZM205.005 23.4759L205.055 15.3224H205.95L210.574 8.90909H218.28L210.524 18.902H208.585L205.005 23.4759ZM198.841 28V2.54545H205.701V28H198.841ZM210.623 28L206.248 20.4432L210.723 15.571L218.478 28H210.623ZM226.677 2.54545V28H219.816V2.54545H226.677ZM239.07 28.348C237.032 28.348 235.275 27.9586 233.801 27.1797C232.334 26.3925 231.203 25.2656 230.407 23.799C229.62 22.3241 229.227 20.5592 229.227 18.5043C229.227 16.5322 229.624 14.8087 230.42 13.3338C231.215 11.8589 232.338 10.7113 233.788 9.89098C235.238 9.07067 236.949 8.66051 238.921 8.66051C240.363 8.66051 241.668 8.88423 242.836 9.33168C244.005 9.77912 245.003 10.4296 245.832 11.283C246.66 12.1282 247.298 13.1557 247.746 14.3654C248.193 15.5752 248.417 16.9382 248.417 18.4545V20.0455H231.364V16.267H242.103C242.095 15.7202 241.954 15.2396 241.68 14.8253C241.415 14.4027 241.055 14.0754 240.599 13.8434C240.152 13.6031 239.642 13.483 239.07 13.483C238.515 13.483 238.006 13.6031 237.542 13.8434C237.078 14.0754 236.705 14.3986 236.423 14.8129C236.15 15.2272 236.005 15.7119 235.988 16.267V20.3438C235.988 20.9569 236.116 21.5038 236.373 21.9844C236.63 22.465 236.999 22.842 237.479 23.1154C237.96 23.3888 238.54 23.5256 239.22 23.5256C239.692 23.5256 240.123 23.4593 240.512 23.3267C240.91 23.1941 241.25 23.0036 241.531 22.755C241.813 22.4981 242.02 22.1915 242.153 21.8352H248.417C248.202 23.161 247.692 24.3127 246.888 25.2905C246.084 26.2599 245.02 27.014 243.694 27.5526C242.377 28.0829 240.835 28.348 239.07 28.348Z" fill="black"/>
</svg>
