<svg width="570" height="750" viewBox="0 0 570 750" fill="none" xmlns="http://www.w3.org/2000/svg">
<rect width="570" height="750" rx="5" fill="#EFF3FD"/>
<path d="M311.833 340.5H258.167C253.932 340.5 250.5 343.932 250.5 348.167V401.833C250.5 406.068 253.932 409.5 258.167 409.5H311.833C316.068 409.5 319.5 406.068 319.5 401.833V348.167C319.5 343.932 316.068 340.5 311.833 340.5Z" stroke="#212121" stroke-width="3" stroke-linecap="round" stroke-linejoin="round"/>
<path d="M271.583 367.333C274.759 367.333 277.333 364.759 277.333 361.583C277.333 358.408 274.759 355.833 271.583 355.833C268.408 355.833 265.833 358.408 265.833 361.583C265.833 364.759 268.408 367.333 271.583 367.333Z" stroke="#212121" stroke-width="3" stroke-linecap="round" stroke-linejoin="round"/>
<path d="M319.5 386.5L300.333 367.333L258.167 409.5" stroke="#212121" stroke-width="3" stroke-linecap="round" stroke-linejoin="round"/>
</svg>
