<svg width="319" height="29" viewBox="0 0 319 29" fill="none" xmlns="http://www.w3.org/2000/svg">
<path d="M0.944602 8.11364V2.54545H23.0682V8.11364H15.4119V28H8.60085V8.11364H0.944602ZM25.5184 28V8.90909H32.3792V28H25.5184ZM28.9488 6.92045C28.0207 6.92045 27.2253 6.61387 26.5624 6.00071C25.8995 5.38755 25.5681 4.65009 25.5681 3.78835C25.5681 2.92661 25.8995 2.18916 26.5624 1.57599C27.2253 0.962831 28.0207 0.65625 28.9488 0.65625C29.8851 0.65625 30.6805 0.962831 31.3351 1.57599C31.998 2.18916 32.3295 2.92661 32.3295 3.78835C32.3295 4.65009 31.998 5.38755 31.3351 6.00071C30.6805 6.61387 29.8851 6.92045 28.9488 6.92045ZM44.8223 28.348C42.7508 28.348 40.9776 27.9379 39.5027 27.1175C38.0278 26.2889 36.8967 25.1372 36.1096 23.6623C35.3224 22.1791 34.9288 20.4598 34.9288 18.5043C34.9288 16.5488 35.3224 14.8336 36.1096 13.3587C36.8967 11.8755 38.0278 10.7237 39.5027 9.90341C40.9776 9.07481 42.7508 8.66051 44.8223 8.66051C46.6949 8.66051 48.3148 9.00024 49.682 9.67969C51.0575 10.3509 52.1222 11.3037 52.8762 12.5384C53.6303 13.7647 54.0114 15.2064 54.0197 16.8636H47.6561C47.5649 15.861 47.2749 15.0987 46.786 14.5767C46.3055 14.0464 45.684 13.7812 44.9217 13.7812C44.3251 13.7812 43.8031 13.9553 43.3556 14.3033C42.9082 14.643 42.5602 15.1609 42.3116 15.8569C42.063 16.5446 41.9387 17.4105 41.9387 18.4545C41.9387 19.4986 42.063 20.3686 42.3116 21.0646C42.5602 21.7524 42.9082 22.2702 43.3556 22.6183C43.8031 22.958 44.3251 23.1278 44.9217 23.1278C45.4271 23.1278 45.8746 23.0118 46.264 22.7798C46.6535 22.5395 46.9683 22.1915 47.2086 21.7358C47.4572 21.2718 47.6064 20.7083 47.6561 20.0455H54.0197C53.9949 21.7275 53.6096 23.1941 52.8638 24.4453C52.1181 25.6882 51.0616 26.6494 49.6944 27.3288C48.3355 28.0083 46.7115 28.348 44.8223 28.348ZM62.7652 23.4759L62.8149 15.3224H63.7098L68.3334 8.90909H76.0393L68.2836 18.902H66.3447L62.7652 23.4759ZM56.6004 28V2.54545H63.4612V28H56.6004ZM68.3831 28L64.0081 20.4432L68.4825 15.571L76.2382 28H68.3831ZM84.4368 2.54545V28H77.576V2.54545H84.4368ZM96.8302 28.348C94.7918 28.348 93.0352 27.9586 91.5603 27.1797C90.0937 26.3925 88.9626 25.2656 88.1672 23.799C87.38 22.3241 86.9864 20.5592 86.9864 18.5043C86.9864 16.5322 87.3841 14.8087 88.1796 13.3338C88.9751 11.8589 90.0978 10.7113 91.5479 9.89098C92.9979 9.07067 94.709 8.66051 96.681 8.66051C98.1228 8.66051 99.4278 8.88423 100.596 9.33168C101.764 9.77912 102.763 10.4296 103.592 11.283C104.42 12.1282 105.058 13.1557 105.506 14.3654C105.953 15.5752 106.177 16.9382 106.177 18.4545V20.0455H89.1242V16.267H99.8628C99.8546 15.7202 99.7137 15.2396 99.4403 14.8253C99.1751 14.4027 98.8147 14.0754 98.3589 13.8434C97.9115 13.6031 97.4019 13.483 96.8302 13.483C96.275 13.483 95.7654 13.6031 95.3014 13.8434C94.8374 14.0754 94.4645 14.3986 94.1828 14.8129C93.9094 15.2272 93.7644 15.7119 93.7478 16.267V20.3438C93.7478 20.9569 93.8762 21.5038 94.1331 21.9844C94.3899 22.465 94.7587 22.842 95.2393 23.1154C95.7198 23.3888 96.2999 23.5256 96.9793 23.5256C97.4516 23.5256 97.8825 23.4593 98.2719 23.3267C98.6697 23.1941 99.0094 23.0036 99.2911 22.755C99.5728 22.4981 99.78 22.1915 99.9126 21.8352H106.177C105.961 23.161 105.452 24.3127 104.648 25.2905C103.844 26.2599 102.78 27.014 101.454 27.5526C100.136 28.0829 98.5951 28.348 96.8302 28.348ZM108.627 2.54545H117.228L123.144 16.9631H123.442L129.358 2.54545H137.959V28H131.198V13.2841H130.999L125.331 27.8011H121.255L115.587 13.1847H115.388V28H108.627V2.54545ZM150.281 28.348C148.21 28.348 146.437 27.9379 144.962 27.1175C143.487 26.2889 142.356 25.1372 141.569 23.6623C140.781 22.1791 140.388 20.4598 140.388 18.5043C140.388 16.5488 140.781 14.8336 141.569 13.3587C142.356 11.8755 143.487 10.7237 144.962 9.90341C146.437 9.07481 148.21 8.66051 150.281 8.66051C152.353 8.66051 154.126 9.07481 155.601 9.90341C157.076 10.7237 158.207 11.8755 158.994 13.3587C159.781 14.8336 160.175 16.5488 160.175 18.5043C160.175 20.4598 159.781 22.1791 158.994 23.6623C158.207 25.1372 157.076 26.2889 155.601 27.1175C154.126 27.9379 152.353 28.348 150.281 28.348ZM150.331 23.277C150.911 23.277 151.412 23.0823 151.835 22.6928C152.257 22.3034 152.585 21.7482 152.817 21.0273C153.049 20.3065 153.165 19.4489 153.165 18.4545C153.165 17.4519 153.049 16.5943 152.817 15.8817C152.585 15.1609 152.257 14.6057 151.835 14.2163C151.412 13.8268 150.911 13.6321 150.331 13.6321C149.718 13.6321 149.192 13.8268 148.752 14.2163C148.313 14.6057 147.978 15.1609 147.746 15.8817C147.514 16.5943 147.398 17.4519 147.398 18.4545C147.398 19.4489 147.514 20.3065 147.746 21.0273C147.978 21.7482 148.313 22.3034 148.752 22.6928C149.192 23.0823 149.718 23.277 150.331 23.277ZM162.709 28V8.90909H169.371V12.5384H169.57C169.918 11.196 170.469 10.2141 171.223 9.59268C171.985 8.97124 172.876 8.66051 173.895 8.66051C174.193 8.66051 174.487 8.68537 174.777 8.73509C175.076 8.77652 175.362 8.83866 175.635 8.92152V14.7756C175.295 14.6596 174.877 14.5726 174.38 14.5146C173.882 14.4566 173.456 14.4276 173.099 14.4276C172.428 14.4276 171.823 14.5808 171.285 14.8874C170.754 15.1857 170.336 15.6083 170.029 16.1552C169.723 16.6938 169.57 17.3277 169.57 18.0568V28H162.709ZM185.689 28.348C183.65 28.348 181.894 27.9586 180.419 27.1797C178.952 26.3925 177.821 25.2656 177.026 23.799C176.238 22.3241 175.845 20.5592 175.845 18.5043C175.845 16.5322 176.243 14.8087 177.038 13.3338C177.833 11.8589 178.956 10.7113 180.406 9.89098C181.856 9.07067 183.567 8.66051 185.539 8.66051C186.981 8.66051 188.286 8.88423 189.455 9.33168C190.623 9.77912 191.621 10.4296 192.45 11.283C193.279 12.1282 193.917 13.1557 194.364 14.3654C194.811 15.5752 195.035 16.9382 195.035 18.4545V20.0455H177.983V16.267H188.721C188.713 15.7202 188.572 15.2396 188.299 14.8253C188.033 14.4027 187.673 14.0754 187.217 13.8434C186.77 13.6031 186.26 13.483 185.689 13.483C185.133 13.483 184.624 13.6031 184.16 13.8434C183.696 14.0754 183.323 14.3986 183.041 14.8129C182.768 15.2272 182.623 15.7119 182.606 16.267V20.3438C182.606 20.9569 182.735 21.5038 182.991 21.9844C183.248 22.465 183.617 22.842 184.098 23.1154C184.578 23.3888 185.158 23.5256 185.838 23.5256C186.31 23.5256 186.741 23.4593 187.13 23.3267C187.528 23.1941 187.868 23.0036 188.15 22.755C188.431 22.4981 188.638 22.1915 188.771 21.8352H195.035C194.82 23.161 194.31 24.3127 193.506 25.2905C192.703 26.2599 191.638 27.014 190.312 27.5526C188.995 28.0829 187.453 28.348 185.689 28.348ZM195.012 8.11364V2.54545H217.136V8.11364H209.479V28H202.668V8.11364H195.012ZM222.308 28.2983C221.09 28.2983 220.012 28.0994 219.076 27.7017C218.148 27.2957 217.419 26.6825 216.889 25.8622C216.358 25.0419 216.093 23.9979 216.093 22.7301C216.093 21.6861 216.271 20.7953 216.628 20.0579C216.984 19.3121 217.481 18.7031 218.119 18.2308C218.757 17.7585 219.499 17.3981 220.344 17.1495C221.197 16.9009 222.117 16.7393 223.103 16.6648C224.172 16.5819 225.03 16.4825 225.676 16.3665C226.331 16.2422 226.803 16.0723 227.093 15.8569C227.383 15.6332 227.528 15.339 227.528 14.9744V14.9247C227.528 14.4276 227.337 14.0464 226.956 13.7812C226.575 13.5161 226.086 13.3835 225.49 13.3835C224.835 13.3835 224.3 13.5285 223.886 13.8185C223.48 14.1003 223.236 14.5353 223.153 15.1236H216.839C216.922 13.9635 217.291 12.8946 217.945 11.9169C218.608 10.9309 219.573 10.1437 220.841 9.5554C222.109 8.95881 223.691 8.66051 225.589 8.66051C226.956 8.66051 228.182 8.82209 229.268 9.14524C230.353 9.46011 231.277 9.90341 232.04 10.4751C232.802 11.0386 233.382 11.7015 233.78 12.4638C234.186 13.2178 234.389 14.0381 234.389 14.9247V28H227.975V25.3153H227.826C227.445 26.0279 226.981 26.6038 226.434 27.043C225.896 27.4821 225.278 27.8011 224.582 28C223.894 28.1989 223.136 28.2983 222.308 28.2983ZM224.545 23.973C225.067 23.973 225.556 23.8653 226.012 23.6499C226.476 23.4344 226.853 23.1237 227.143 22.7177C227.433 22.3117 227.578 21.8187 227.578 21.2386V19.6477C227.395 19.7223 227.201 19.7927 226.993 19.859C226.795 19.9253 226.579 19.9875 226.347 20.0455C226.123 20.1035 225.883 20.1573 225.626 20.207C225.378 20.2567 225.117 20.3023 224.843 20.3438C224.313 20.4266 223.878 20.5633 223.538 20.7539C223.207 20.9362 222.958 21.1641 222.792 21.4375C222.635 21.7027 222.556 22.0009 222.556 22.3324C222.556 22.8627 222.743 23.2687 223.116 23.5504C223.488 23.8321 223.965 23.973 224.545 23.973ZM246.565 28.348C244.526 28.348 242.77 27.9586 241.295 27.1797C239.828 26.3925 238.697 25.2656 237.902 23.799C237.114 22.3241 236.721 20.5592 236.721 18.5043C236.721 16.5322 237.119 14.8087 237.914 13.3338C238.709 11.8589 239.832 10.7113 241.282 9.89098C242.732 9.07067 244.443 8.66051 246.415 8.66051C247.857 8.66051 249.162 8.88423 250.331 9.33168C251.499 9.77912 252.497 10.4296 253.326 11.283C254.155 12.1282 254.793 13.1557 255.24 14.3654C255.687 15.5752 255.911 16.9382 255.911 18.4545V20.0455H238.859V16.267H249.597C249.589 15.7202 249.448 15.2396 249.175 14.8253C248.909 14.4027 248.549 14.0754 248.093 13.8434C247.646 13.6031 247.136 13.483 246.565 13.483C246.009 13.483 245.5 13.6031 245.036 13.8434C244.572 14.0754 244.199 14.3986 243.917 14.8129C243.644 15.2272 243.499 15.7119 243.482 16.267V20.3438C243.482 20.9569 243.611 21.5038 243.867 21.9844C244.124 22.465 244.493 22.842 244.974 23.1154C245.454 23.3888 246.034 23.5256 246.714 23.5256C247.186 23.5256 247.617 23.4593 248.006 23.3267C248.404 23.1941 248.744 23.0036 249.025 22.755C249.307 22.4981 249.514 22.1915 249.647 21.8352H255.911C255.696 23.161 255.186 24.3127 254.382 25.2905C253.579 26.2599 252.514 27.014 251.188 27.5526C249.871 28.0829 248.329 28.348 246.565 28.348ZM275.911 15.1236H269.597C269.564 14.7341 269.427 14.3986 269.187 14.1168C268.947 13.8351 268.636 13.6197 268.255 13.4705C267.882 13.3131 267.468 13.2344 267.012 13.2344C266.424 13.2344 265.918 13.3421 265.496 13.5575C265.073 13.773 264.866 14.0795 264.874 14.4773C264.866 14.759 264.986 15.02 265.235 15.2603C265.491 15.5006 265.984 15.687 266.714 15.8196L270.591 16.5156C272.547 16.8719 274.001 17.4727 274.954 18.3178C275.915 19.1547 276.4 20.2775 276.408 21.6861C276.4 23.045 275.994 24.2257 275.19 25.2283C274.395 26.2227 273.305 26.9933 271.921 27.5401C270.546 28.0787 268.976 28.348 267.211 28.348C264.294 28.348 262.011 27.7514 260.362 26.5582C258.722 25.3651 257.806 23.7907 257.616 21.8352H264.427C264.518 22.4401 264.816 22.9083 265.322 23.2397C265.835 23.5629 266.482 23.7244 267.26 23.7244C267.89 23.7244 268.408 23.6167 268.814 23.4013C269.228 23.1858 269.44 22.8793 269.448 22.4815C269.44 22.117 269.257 21.8269 268.901 21.6115C268.553 21.3961 268.006 21.2221 267.26 21.0895L263.88 20.4929C261.933 20.1532 260.474 19.5069 259.505 18.554C258.535 17.6011 258.055 16.3748 258.063 14.875C258.055 13.5492 258.403 12.4265 259.107 11.5067C259.82 10.5787 260.835 9.87441 262.152 9.39382C263.478 8.90495 265.048 8.66051 266.863 8.66051C269.622 8.66051 271.797 9.23224 273.388 10.3757C274.987 11.5192 275.828 13.1018 275.911 15.1236ZM284.107 28.2983C282.888 28.2983 281.811 28.0994 280.875 27.7017C279.947 27.2957 279.218 26.6825 278.688 25.8622C278.157 25.0419 277.892 23.9979 277.892 22.7301C277.892 21.6861 278.07 20.7953 278.426 20.0579C278.783 19.3121 279.28 18.7031 279.918 18.2308C280.556 17.7585 281.298 17.3981 282.143 17.1495C282.996 16.9009 283.916 16.7393 284.902 16.6648C285.971 16.5819 286.828 16.4825 287.475 16.3665C288.129 16.2422 288.602 16.0723 288.892 15.8569C289.182 15.6332 289.327 15.339 289.327 14.9744V14.9247C289.327 14.4276 289.136 14.0464 288.755 13.7812C288.374 13.5161 287.885 13.3835 287.288 13.3835C286.634 13.3835 286.099 13.5285 285.685 13.8185C285.279 14.1003 285.035 14.5353 284.952 15.1236H278.638C278.721 13.9635 279.089 12.8946 279.744 11.9169C280.407 10.9309 281.372 10.1437 282.64 9.5554C283.908 8.95881 285.49 8.66051 287.388 8.66051C288.755 8.66051 289.981 8.82209 291.067 9.14524C292.152 9.46011 293.076 9.90341 293.838 10.4751C294.601 11.0386 295.181 11.7015 295.578 12.4638C295.984 13.2178 296.188 14.0381 296.188 14.9247V28H289.774V25.3153H289.625C289.244 26.0279 288.78 26.6038 288.233 27.043C287.694 27.4821 287.077 27.8011 286.381 28C285.693 28.1989 284.935 28.2983 284.107 28.2983ZM286.344 23.973C286.866 23.973 287.355 23.8653 287.81 23.6499C288.274 23.4344 288.651 23.1237 288.941 22.7177C289.231 22.3117 289.376 21.8187 289.376 21.2386V19.6477C289.194 19.7223 288.999 19.7927 288.792 19.859C288.593 19.9253 288.378 19.9875 288.146 20.0455C287.922 20.1035 287.682 20.1573 287.425 20.207C287.176 20.2567 286.915 20.3023 286.642 20.3438C286.112 20.4266 285.677 20.5633 285.337 20.7539C285.006 20.9362 284.757 21.1641 284.591 21.4375C284.434 21.7027 284.355 22.0009 284.355 22.3324C284.355 22.8627 284.542 23.2687 284.914 23.5504C285.287 23.8321 285.764 23.973 286.344 23.973ZM306.076 17.2614V28H299.216V8.90909H305.728V12.5384H305.927C306.342 11.3286 307.071 10.3799 308.115 9.69212C309.167 9.00438 310.393 8.66051 311.794 8.66051C313.144 8.66051 314.317 8.97124 315.311 9.59268C316.314 10.2058 317.089 11.051 317.635 12.1282C318.191 13.2054 318.464 14.4358 318.456 15.8196V28H311.595V17.2614C311.603 16.3168 311.363 15.5752 310.874 15.0366C310.393 14.498 309.722 14.2287 308.861 14.2287C308.297 14.2287 307.804 14.353 307.381 14.6016C306.967 14.8419 306.648 15.1899 306.424 15.6456C306.201 16.093 306.085 16.6316 306.076 17.2614Z" fill="black"/>
</svg>
